<?xml version="1.0" encoding="UTF-8"?>
<!DOCTYPE svg PUBLIC "-//W3C//DTD SVG 1.1//EN" "http://www.w3.org/Graphics/SVG/1.1/DTD/svg11.dtd">
<!-- Creator: CorelDRAW -->
<svg xmlns="http://www.w3.org/2000/svg" xml:space="preserve" width="242.75mm" height="33.0718mm" version="1.1" style="shape-rendering:geometricPrecision; text-rendering:geometricPrecision; image-rendering:optimizeQuality; fill-rule:evenodd; clip-rule:evenodd"
viewBox="0 0 42236.31 5754.18"
 xmlns:xlink="http://www.w3.org/1999/xlink"
 xmlns:xodm="http://www.corel.com/coreldraw/odm/2003">
 <defs>
  <style type="text/css">
   <![CDATA[
    .fil1 {fill:#FEFEFE}
    .fil0 {fill:#FEFEFE;fill-rule:nonzero}
   ]]>
  </style>
 </defs>
 <g id="Capa_x0020_1">
  <metadata id="CorelCorpID_0Corel-Layer"/>
  <path class="fil0" d="M7837.55 2823.68l1258.74 -2189.1 598.11 0 -1626.2 2814.56 -465.18 0 -1626.19 -2814.56 598.09 0 1262.63 2189.1zm4041.91 -785.72l0 512.09 -1598.82 0 0 -512.09 1598.82 0zm3506.36 -887.37l-2263.39 0c-18.23,0 -27.35,9.12 -27.35,27.35l0 1727.83c0,18.25 9.12,27.37 27.35,27.37l2263.39 0 0 516 -2263.39 0c-151.15,0 -279.5,-52.77 -385.04,-158.31 -105.54,-105.54 -158.31,-233.9 -158.31,-385.06l0 -1727.83c0,-151.15 52.77,-279.5 158.31,-385.04 105.54,-105.54 233.9,-158.31 385.04,-158.31l2263.39 0 0 516zm699.6 2298.56l0 -2814.56 516 0 0 2814.56 -516 0zm1149.16 0l0 -2814.56 516 0 0 2814.56 -516 0zm3940.28 -2271.2l0 215 -519.92 0 0 -215c0,-18.23 -7.81,-27.35 -23.45,-27.35l-1727.83 0c-18.23,0 -27.37,9.12 -27.37,27.35l0 578.55c0,18.25 9.13,27.37 27.37,27.37l1727.83 0c148.55,0 276.24,52.77 383.09,158.31 106.85,105.54 160.28,233.9 160.28,385.06l0 578.54c0,151.16 -53.43,279.52 -160.28,385.06 -106.85,105.54 -234.54,158.31 -383.09,158.31l-1727.83 0c-151.15,0 -279.5,-52.77 -385.04,-158.31 -105.56,-105.54 -158.33,-233.9 -158.33,-385.06l0 -215 516 0 0 215c0,18.25 9.13,27.37 27.37,27.37l1727.83 0c15.64,0 23.45,-9.12 23.45,-27.37l0 -578.54c0,-18.25 -7.81,-27.37 -23.45,-27.37l-1727.83 0c-151.15,0 -279.5,-52.77 -385.04,-158.31 -105.56,-105.56 -158.33,-233.9 -158.33,-385.06l0 -578.55c0,-151.15 52.77,-279.5 158.33,-385.04 105.54,-105.54 233.9,-158.31 385.04,-158.31l1727.83 0c148.55,0 276.24,52.77 383.09,158.31 106.85,105.54 160.28,233.9 160.28,385.04zm711.33 2271.2l0 -2814.56 516 0 0 2814.56 -516 0zm3952.01 -2298.56l-2263.39 0c-18.23,0 -27.35,9.12 -27.35,27.35l0 1727.83c0,18.25 9.12,27.37 27.35,27.37l2263.39 0 0 516 -2263.39 0c-151.15,0 -279.5,-52.77 -385.04,-158.31 -105.54,-105.54 -158.31,-233.9 -158.31,-385.06l0 -1727.83c0,-151.15 52.77,-279.5 158.31,-385.04 105.54,-105.54 233.9,-158.31 385.04,-158.31l2263.39 0 0 516zm2306.25 887.37l0 512.09 -1598.82 0 0 -512.09 1598.82 0zm1242.97 -1403.37l1708.29 0c148.55,0 275.58,52.77 381.14,158.31 105.54,105.54 158.31,232.59 158.31,381.14l0 625.46c0,148.54 -52.77,275.58 -158.31,381.13 -105.56,105.54 -232.59,158.33 -381.14,158.33l-1708.29 0c-18.23,0 -27.35,7.81 -27.35,23.45l0 547.27c0,18.23 9.12,27.37 27.35,27.37l2247.75 0 0 512.09 -2787.21 0 0 -1086.73c0,-148.55 52.79,-275.6 158.33,-381.14 105.54,-105.54 232.59,-158.31 381.13,-158.31l1708.29 0c18.23,0 27.37,-7.83 27.37,-23.45l0 -625.46c0,-18.25 -9.13,-27.37 -27.37,-27.37l-1708.29 0c-18.23,0 -27.35,9.12 -27.35,27.37l0 211.09 -512.11 0 0 -211.09c0,-148.55 52.79,-275.6 158.33,-381.14 105.54,-105.54 232.59,-158.31 381.13,-158.31zm3533.72 0l1708.29 0c148.55,0 275.58,54.72 381.14,164.18 105.54,109.46 158.31,238.45 158.31,387.01l0 1708.28c0,148.55 -52.77,278.21 -158.31,388.96 -105.56,110.76 -232.59,166.14 -381.14,166.14l-1708.29 0c-148.54,0 -275.58,-55.38 -381.13,-166.14 -105.54,-110.75 -158.33,-240.4 -158.33,-388.96l0 -1708.28c0,-148.55 52.79,-277.55 158.33,-387.01 105.54,-109.46 232.59,-164.18 381.13,-164.18zm1505.02 523.82l-1505.02 0c-18.23,0 -27.35,9.12 -27.35,27.37l0 1258.74 1532.37 -1286.1zm-1301.75 1763.01l1505.02 0c18.23,0 27.37,-9.12 27.37,-27.37l0 -1258.74 -1532.39 1286.1zm3346.08 -2286.83l1708.29 0c148.55,0 275.58,52.77 381.14,158.31 105.54,105.54 158.31,232.59 158.31,381.14l0 625.46c0,148.54 -52.77,275.58 -158.31,381.13 -105.56,105.54 -232.59,158.33 -381.14,158.33l-1708.29 0c-18.23,0 -27.35,7.81 -27.35,23.45l0 547.27c0,18.23 9.12,27.37 27.35,27.37l2247.75 0 0 512.09 -2787.21 0 0 -1086.73c0,-148.55 52.79,-275.6 158.33,-381.14 105.54,-105.54 232.59,-158.31 381.13,-158.31l1708.29 0c18.23,0 27.37,-7.83 27.37,-23.45l0 -625.46c0,-18.25 -9.13,-27.37 -27.37,-27.37l-1708.29 0c-18.23,0 -27.35,9.12 -27.35,27.37l0 211.09 -512.11 0 0 -211.09c0,-148.55 52.79,-275.6 158.33,-381.14 105.54,-105.54 232.59,-158.31 381.13,-158.31zm5656.37 539.46l0 562.91c0,75.56 -13.03,140.72 -39.08,195.44 99.02,104.26 148.54,226.74 148.54,367.47l0 609.82c0,148.55 -52.11,275.6 -156.37,381.14 -104.24,105.54 -230.62,158.31 -379.18,158.31l-1712.19 0c-148.55,0 -275.6,-52.77 -381.14,-158.31 -105.54,-105.54 -158.31,-232.59 -158.31,-381.14l0 -168.09 512.09 0 0 168.09c0,18.23 9.12,27.37 27.37,27.37l1712.19 0c15.64,0 23.45,-9.13 23.45,-27.37l0 -609.82c0,-18.25 -7.81,-27.37 -23.45,-27.37l-1766.93 0 0 -512.09 1653.56 0c18.25,0 27.37,-7.83 27.37,-23.45l0 -562.91c0,-18.25 -9.12,-27.37 -27.37,-27.37l-1598.82 0c-18.25,0 -27.37,9.12 -27.37,27.37l0 203.27 -512.09 0 0 -203.27c0,-148.55 52.77,-275.6 158.31,-381.14 105.54,-105.54 232.59,-158.31 381.14,-158.31l1598.82 0c148.55,0 275.6,52.77 381.14,158.31 105.54,105.54 158.31,232.59 158.31,381.14z"/>
  <path class="fil0" d="M22150.3 5515.64l0 -1082.62 198.18 0 0 1082.62c0,66.05 -23.25,122.33 -69.72,168.81 -46.49,46.49 -102.76,69.74 -168.82,69.74l-844.08 0c-66.05,0 -122.33,-23.25 -168.81,-69.74 -46.49,-46.47 -69.74,-102.76 -69.74,-168.81l0 -1082.62 198.18 0 0 1082.62c0,11.01 3.98,20.48 11.94,28.43 7.95,7.95 17.42,11.94 28.43,11.94l844.08 0c11.01,0 20.5,-3.98 28.45,-11.94 7.95,-7.95 11.92,-17.42 11.92,-28.43zm1610.09 -25.7l0 -1056.92 198.18 0 0 1321.16 -234.87 0 -888.12 -1056.94 0 1056.94 -198.18 0 0 -1321.16 234.87 0 888.12 1056.92zm494.45 -1056.92l1082.62 0c66.06,0 122.33,23.25 168.82,69.72 46.47,46.49 69.72,102.76 69.72,168.82l0 844.08c0,66.05 -23.25,122.33 -69.72,168.81 -46.49,46.49 -102.76,69.74 -168.82,69.74l-1082.62 0 0 -1321.16zm1122.99 1082.62l0 -844.08c0,-11.01 -3.97,-20.5 -11.92,-28.45 -7.95,-7.95 -17.43,-11.92 -28.45,-11.92l-844.08 0c-11.01,0 -20.5,3.97 -28.45,11.92 -7.95,7.95 -11.92,17.43 -11.92,28.45l0 844.08c0,11.01 3.97,20.48 11.92,28.43 7.95,7.95 17.43,11.94 28.45,11.94l844.08 0c11.01,0 20.5,-3.98 28.45,-11.94 7.95,-7.95 11.92,-17.42 11.92,-28.43zm1808.27 -884.45l-1078.95 0c-11.01,0 -20.5,3.97 -28.45,11.92 -7.95,7.95 -11.92,17.43 -11.92,28.45l0 844.08c0,11.01 3.97,20.48 11.92,28.43 7.95,7.95 17.43,11.94 28.45,11.94l1078.95 0 0 198.18 -1078.95 0c-66.06,0 -122.33,-23.25 -168.81,-69.74 -46.49,-46.47 -69.74,-102.76 -69.74,-168.81l0 -844.08c0,-66.06 23.25,-122.33 69.74,-168.82 46.47,-46.47 102.74,-69.72 168.81,-69.72l1078.95 0 0 198.18z"/>
  <g id="_1281073721632">
   <path class="fil1" d="M3712.63 3404.18c0,-25.25 3.74,-12.81 11.03,-44.07 24.71,-5.76 25.32,-11.01 55.09,-11.01 72.14,0 77.11,204.02 77.11,275.43 0,177.7 -150.15,473.71 -242.37,473.71 -25.7,0 -55.09,-29.39 -55.09,-55.09 0,-34.47 78.68,-97.56 124.98,-183.49 120.75,-224.08 29.25,-426.45 29.25,-455.47zm-154.23 -782.19c0,-25.25 3.72,-12.81 11.01,-44.05 79.76,-18.6 88.44,-26.46 102.57,62.67 11.54,72.83 29.54,106.95 87.99,154.38 37.15,30.17 62.83,30.73 62.83,80.38 0,124.25 -264.4,-16.95 -264.4,-253.38zm528.81 -705.06c11.34,-48.75 21.23,-66.12 66.08,-66.12 27.23,0 159.45,92.51 184.1,113.37 57.3,48.49 104.29,102.62 146.4,162.07 119.64,169.03 226.48,550.82 99.16,550.82 -26.48,0 -32.38,-17.87 -55.07,-33.04 0,-258.46 -96.98,-456.48 -271.93,-598.41 -31.39,-25.47 -48.23,-38.73 -82.75,-60.48 -41.06,-25.87 -59.4,-28.52 -85.99,-68.22zm-583.9 -1123.72c0,-51.22 -7.93,-88.13 55.09,-88.13 115.41,0 -39.9,251.07 282.2,444.89 104.95,63.16 8.16,116.96 4.25,116.96 -116.16,0 -341.53,-229.58 -341.53,-473.72zm-407.63 -187.28l0 4318.55c0,238.38 132.09,453.32 344.4,547.98 166.84,74.38 317.01,78.16 488.55,9.55 32.28,-12.91 66.08,-34.19 92.06,-51.15 69.79,-45.59 101.71,-80.84 150.1,-147.35 153.06,-210.42 152.57,-485.36 -9.71,-686.83 -27.26,-33.86 -39.64,-78.1 4.04,-101.33 62.27,-33.13 127.76,83.92 157.18,138.95 44.73,83.67 50.35,147.32 73.35,246.13 185.11,-123.95 336.64,-460.22 302.45,-687.89 -23.3,-155.03 -40.05,-239.01 -123.9,-371.99 -156.8,-248.77 -270.07,-160.8 -233.62,-317.2 44.21,-3.69 39.55,-13.43 79.04,8.18 99.75,54.65 225.67,200.35 280.93,303.86 49.15,92.06 44.56,109.34 69.68,161.67 265.53,-140.5 363.54,-295.4 363.54,-605.92 0,-97.31 -44.85,-196.19 -91.36,-272.17 -23.94,-39.1 -42.12,-43.95 -51.85,-80.37 52.46,-25.16 286.67,-39.43 418.9,-308.19 128.39,-260.9 32.4,-593.52 -220.59,-727.37 81.41,-121.58 110.15,-106.27 110.15,-297.47 0,-103.45 -92.3,-220.46 -154.03,-264.59 -178.64,-127.64 -411.63,-148.14 -610.13,-47.9 -73.32,37.03 -105.53,89.9 -172.25,125.22 -14.98,-7.93 -55.09,-24.12 -55.09,-44.07 0,-95.63 179.71,-183.13 262.8,-210.93 220.59,-73.79 288.04,42.59 288.04,-207.71 0,-302.36 -326.89,-539.7 -638.98,-374.57 0,-349.39 -245.14,-605.92 -539.81,-605.92 -253.59,0 -430.56,115.5 -532.72,326.58 -26.95,55.68 -51.17,146.26 -51.17,224.26z"/>
   <path class="fil1" d="M1983.01 1828.78l0 1828.78c0,118.05 71.88,209.31 187.28,209.31l815.23 0 0 -264.4 -738.12 0 0 -1696.58 738.12 0 0 -264.4 -837.28 0c-84.7,0 -165.24,94.81 -165.24,187.28z"/>
   <polygon class="fil1" points="2357.57,3492.31 2985.52,3492.31 2985.52,2016.06 2357.57,2016.06 "/>
   <path class="fil1" d="M815.23 3569.44l11.01 1090.64c-249.54,132.06 -81.71,363.55 33.06,363.55 106.71,0 203.31,-38.12 213.28,-169.62 7.95,-104.95 -50.07,-154.21 -125.15,-193.93 0,-231.36 0,-462.69 0,-694.05 0,-175.47 -78.71,-550.84 132.2,-550.84l793.21 0 0 -132.2c-234.17,0 -431.24,11.01 -660.99,11.01 -126.61,0 -205.5,-9.4 -282.32,48.2 -63.82,47.86 -114.29,120.66 -114.29,227.23z"/>
   <path class="fil1" d="M-0 1531.33l0 55.09c0,79.22 92.34,156.56 177.71,158.61 156.07,3.76 159.39,-125.57 207.87,-125.57 160.14,0 334.83,-31.74 370.13,103.61 19.28,73.91 -56.96,469.27 290.88,469.27l826.25 0 0 -121.18c-89.74,0 -144.88,-11.15 -242.35,-11.01l-517.81 0c-114.92,0.3 -148.94,8.32 -200.91,-63.49 -47.03,-64.99 50.02,-491.84 -283.29,-498.88 -87.01,-1.84 -177.49,0.52 -264.92,0.52 -132.04,-249.55 -363.55,-81.71 -363.55,33.04z"/>
   <path class="fil1" d="M1872.84 363.55c0,121.18 0,242.37 0,363.55 0,332.84 -7.27,273.67 228.61,509.53 112.52,112.5 134.95,118.49 134.95,294.69l121.18 0c0,-77.69 4.04,-145.66 -28.67,-213.7 -42.84,-89.05 -186.36,-217.28 -260.57,-290.27 -94.11,-92.55 -74.31,-117.06 -74.31,-289.24 0,-124.86 0,-249.71 0,-374.57 192.29,-51.34 145.77,-363.55 -55.07,-363.55 -236.4,0 -251.09,320.47 -66.12,363.55z"/>
   <path class="fil1" d="M2522.83 5166.84c-191.34,44.58 -137.96,352.54 33.04,352.54 66.97,0 119.06,0.96 167.26,-53.08 84.63,-94.88 61.19,-227.01 -35.96,-287.52 -55.61,-34.62 -43.15,6.89 -43.15,-199.2 0,-238.84 242.37,-198.84 242.37,-484.74l0 -517.8c-168.74,0 -132.22,-44.19 -132.22,330.51 0,58.77 -0.31,117.65 0.17,176.43 1.91,231.25 -127.87,170.2 -206.28,344.55 -37.7,83.9 -25.23,220.83 -25.23,338.31z"/>
   <path class="fil1" d="M2236.39 4549.93c0,182.05 -114.22,144.57 -363.62,143.14 -110.28,-0.64 -137.73,-1.3 -196.04,57.35 -89.54,90.06 -68.29,218.15 -68.29,372.37 0,56.91 29.2,68.59 66.1,88.13 41.95,-22.18 61.4,-25.91 66.33,-87.9 3.72,-46.7 0.12,-116.8 -0.4,-165.67 -1.65,-151.2 20.37,-143.49 176.43,-143.04 518.47,1.55 440.68,-14.74 440.68,-837.26l-121.18 0 0 572.88z"/>
   <path class="fil1" d="M1299.97 1200.83c0,80.26 65.59,160.73 132.2,176.27 0,123.29 -20.51,291.05 17.31,390.3 75.98,199.41 269.55,171.55 423.35,171.55l0 -121.18c-365.97,0 -319.48,-34.82 -319.48,-440.67 192.28,-51.34 145.75,-363.57 -55.09,-363.57 -75.51,0 -148.1,43.15 -176.64,109.82 -3.97,9.24 -21.66,66.57 -21.66,77.48z"/>
   <path class="fil1" d="M1333.01 3800.77c0,219.4 -52.79,517.8 242.37,517.8 107.28,0 176.27,15.68 176.27,-77.11 0,-125.41 -286.42,26.88 -286.42,-132.22l0 -352.52c0,-99.47 271.55,-66.12 407.61,-66.12l0 -121.17c-246.35,0 -539.82,-57.42 -539.82,231.34z"/>
   <path class="fil1" d="M2489.77 363.55l0 1167.77 121.2 0 0 -1145.73c0,-107.47 -121.2,-84.21 -121.2,-22.04z"/>
   <path class="fil1" d="M936.42 2732.16c0,41.95 10.53,77.11 77.11,77.11l859.31 0c0,-93.97 12.96,-132.2 -33.04,-132.2l-804.22 0c-44.66,0 -99.16,11.87 -99.16,55.09z"/>
   <path class="fil1" d="M2754.17 804.24l0 694.05c0,42.84 28.27,33.04 99.16,33.04 25.39,0 33.06,-7.67 33.06,-33.04 0,-151.93 14.72,-671.74 -11.01,-782.19 -75.58,-36.28 -121.2,-11.24 -121.2,88.14z"/>
   <path class="fil1" d="M1233.87 3084.7c0,51.41 25.7,77.11 77.11,77.11l561.85 0 0 -132.2 -561.85 0c-37.13,0 -77.11,19.45 -77.11,55.09z"/>
   <path class="fil1" d="M1244.89 2346.56c-8.6,36.94 -24.01,110.17 44.07,110.17l583.88 0 0 -121.18c-97.37,0 -569.61,-11.62 -627.95,11.01z"/>
   <path class="fil1" d="M2489.77 4351.61c0,54.82 121.2,77.1 121.2,-22.03l0 -352.54 -121.2 0 0 374.57z"/>
  </g>
 </g>
</svg>
