<?xml version="1.0" encoding="UTF-8"?>
<!DOCTYPE svg PUBLIC "-//W3C//DTD SVG 1.1//EN" "http://www.w3.org/Graphics/SVG/1.1/DTD/svg11.dtd">
<!-- Creator: CorelDRAW -->
<svg xmlns="http://www.w3.org/2000/svg" xml:space="preserve" width="8191px" height="1991px" version="1.1" style="shape-rendering:geometricPrecision; text-rendering:geometricPrecision; image-rendering:optimizeQuality; fill-rule:evenodd; clip-rule:evenodd"
viewBox="0 0 10485.4 2549.26"
 xmlns:xlink="http://www.w3.org/1999/xlink"
 xmlns:xodm="http://www.corel.com/coreldraw/odm/2003">
 <defs>
  <style type="text/css">
   <![CDATA[
    .fil0 {fill:#FEFEFE;fill-rule:nonzero}
   ]]>
  </style>
   <clipPath id="id0">
    <rect width="2549.26" height="2549.26"/>
   </clipPath>
 </defs>
 <g id="Capa_x0020_1">
  <metadata id="CorelCorpID_0Corel-Layer"/>
  <g style="clip-path:url(#id0)">
   <image x="0" y="0" width="2549.26" height="2549.26" xlink:href="logo-white_Images\logo-white_ImgID1.png"/>
  </g>
  <path class="fil0" d="M3807.62 1275.17l346.73 106.5c-53.25,195.24 -142,340.13 -265.83,435.07 -123.83,94.52 -280.69,141.99 -470.98,141.99 -235.69,0 -429.29,-80.49 -581.19,-241.47 -151.49,-160.99 -227.44,-381 -227.44,-660.45 0,-295.13 76.37,-524.64 228.68,-688.1 152.31,-163.46 352.93,-245.19 601.42,-245.19 217.12,0 393.37,64.4 528.77,192.77 80.9,75.95 141.16,184.93 181.62,327.33l-354.17 84.21c-21.05,-91.64 -64.8,-164.28 -131.26,-217.53 -66.87,-53.25 -147.77,-79.67 -242.71,-79.67 -131.68,0 -238.59,47.06 -320.32,141.58 -82.14,94.12 -123.01,246.84 -123.01,458.19 0,223.72 40.46,383.47 120.95,478.41 80.9,95.35 185.75,142.82 314.95,142.82 95.35,0 177.49,-30.14 246.01,-90.81 68.52,-60.68 118.06,-155.62 147.78,-285.65zm807.11 653.84l0 -1773.29 359.12 0 0 1773.29 -359.12 0zm853.35 0l0 -1773.29 359.12 0 0 1773.29 -359.12 0zm771.62 -574.58l349.21 -34.68c21.05,116.82 63.16,202.26 127.14,257.16 63.98,54.9 150.25,82.15 258.81,82.15 114.75,0 201.43,-24.36 259.64,-73.07 58.2,-48.7 87.5,-105.67 87.5,-170.88 0,-42.11 -12.38,-77.61 -36.73,-107.33 -24.36,-29.3 -67.28,-54.9 -128.38,-76.36 -41.69,-14.86 -136.62,-40.45 -285.22,-77.6 -191.12,-47.88 -325.27,-106.5 -402.46,-176.26 -108.56,-97.83 -162.64,-217.12 -162.64,-357.88 0,-90.4 25.59,-175.43 76.37,-254.27 51.18,-78.84 124.66,-138.69 220.83,-179.97 96.18,-41.28 211.76,-61.92 347.97,-61.92 221.67,0 388.84,49.13 500.7,147.78 112.28,98.65 170.89,229.92 176.67,394.61l-359.11 12.39c-15.28,-91.64 -47.89,-157.27 -97.83,-197.31 -49.95,-40.04 -125.07,-60.27 -224.97,-60.27 -103.19,0 -184.1,21.47 -242.3,64.4 -37.56,27.65 -56.55,64.39 -56.55,110.62 0,42.1 17.75,78.02 53.25,107.74 44.99,38.39 154.38,78.01 328.16,119.29 173.78,40.86 302.15,83.79 385.12,127.55 83.38,44.16 148.6,104.02 195.66,180.38 47.05,76.36 70.58,170.48 70.58,282.34 0,101.54 -28.07,196.9 -84.62,285.64 -56.55,88.75 -136.21,154.8 -239.41,197.72 -103.19,43.35 -231.98,64.81 -385.95,64.81 -224.13,0 -396.26,-51.6 -516.38,-155.21 -120.12,-103.19 -191.53,-253.85 -215.06,-451.57zm1898.92 574.58l0 -1773.29 359.11 0 0 1773.29 -359.11 0zm2000.04 -653.84l346.74 106.5c-53.25,195.24 -142,340.13 -265.83,435.07 -123.84,94.52 -280.69,141.99 -470.98,141.99 -235.7,0 -429.29,-80.49 -581.19,-241.47 -151.49,-160.99 -227.44,-381 -227.44,-660.45 0,-295.13 76.36,-524.64 228.67,-688.1 152.32,-163.46 352.93,-245.19 601.42,-245.19 217.12,0 393.38,64.4 528.77,192.77 80.9,75.95 141.17,184.93 181.62,327.33l-354.16 84.21c-21.05,-91.64 -64.81,-164.28 -131.27,-217.53 -66.86,-53.25 -147.77,-79.67 -242.71,-79.67 -131.67,0 -238.58,47.06 -320.31,141.58 -82.15,94.12 -123.01,246.84 -123.01,458.19 0,223.72 40.45,383.47 120.94,478.41 80.91,95.35 185.75,142.82 314.95,142.82 95.35,0 177.5,-30.14 246.02,-90.81 68.52,-60.68 118.05,-155.62 147.77,-285.65z"/>
  <path class="fil0" d="M5285.5 2180.2l65.42 0 0 175.04c0,27.82 0.82,45.78 2.4,53.98 2.79,13.23 9.33,23.91 19.7,31.88 10.45,8.05 24.66,12.03 42.71,12.03 18.27,0 32.1,-3.76 41.43,-11.35 9.32,-7.6 14.89,-16.84 16.76,-27.9 1.88,-11.05 2.86,-29.32 2.86,-54.89l0 -178.79 65.42 0 0 169.85c0,38.79 -1.73,66.24 -5.27,82.25 -3.53,16.02 -10,29.55 -19.47,40.6 -9.4,11.06 -22.03,19.78 -37.82,26.32 -15.87,6.54 -36.47,9.85 -61.96,9.85 -30.75,0 -54.06,-3.53 -69.92,-10.68 -15.87,-7.14 -28.42,-16.39 -37.67,-27.82 -9.25,-11.42 -15.26,-23.3 -18.2,-35.86 -4.28,-18.5 -6.39,-45.87 -6.39,-82.03l0 -172.48zm346.31 323.01l0 -323.01 63.31 0 132.93 216.46 0 -216.46 60.45 0 0 323.01 -65.34 0 -130.9 -212.34 0 212.34 -60.45 0zm346.3 -323.01l118.95 0c26.84,0 47.29,2.03 61.35,6.16 18.87,5.57 35.12,15.49 48.57,29.78 13.54,14.21 23.76,31.65 30.83,52.33 6.99,20.6 10.53,46.09 10.53,76.31 0,26.62 -3.31,49.48 -9.93,68.73 -8.04,23.53 -19.55,42.55 -34.51,57.06 -11.28,11.06 -26.54,19.63 -45.71,25.79 -14.36,4.59 -33.54,6.85 -57.6,6.85l-122.48 0 0 -323.01zm65.41 54.58l0 213.84 48.5 0c18.12,0 31.2,-1.05 39.25,-3.08 10.6,-2.64 19.32,-7.15 26.24,-13.46 6.99,-6.32 12.63,-16.69 16.99,-31.13 4.44,-14.44 6.62,-34.21 6.62,-59.17 0,-24.97 -2.18,-44.06 -6.62,-57.45 -4.36,-13.38 -10.52,-23.76 -18.42,-31.28 -7.89,-7.44 -17.89,-12.55 -30.07,-15.18 -9.03,-2.03 -26.85,-3.09 -53.31,-3.09l-29.18 0zm487.51 149.33l63.16 19.4c-9.7,35.56 -25.86,61.95 -48.42,79.24 -22.56,17.22 -51.13,25.87 -85.79,25.87 -42.93,0 -78.2,-14.66 -105.87,-43.99 -27.59,-29.32 -41.42,-69.39 -41.42,-120.3 0,-53.76 13.9,-95.56 41.65,-125.34 27.74,-29.77 64.29,-44.66 109.55,-44.66 39.55,0 71.65,11.73 96.32,35.12 14.73,13.83 25.71,33.68 33.08,59.62l-64.51 15.34c-3.84,-16.69 -11.81,-29.93 -23.91,-39.63 -12.18,-9.7 -26.92,-14.51 -44.21,-14.51 -23.99,0 -43.46,8.57 -58.35,25.79 -14.96,17.14 -22.41,44.96 -22.41,83.46 0,40.75 7.37,69.85 22.03,87.14 14.74,17.37 33.84,26.02 57.37,26.02 17.37,0 32.33,-5.49 44.81,-16.54 12.49,-11.05 21.51,-28.35 26.92,-52.03zm460.37 61.8l0 57.3 -217 0c2.33,-21.81 9.4,-42.41 21.13,-61.88 11.73,-19.48 34.96,-45.34 69.55,-77.6 27.89,-26.01 44.96,-43.68 51.28,-52.93 8.49,-12.78 12.78,-25.41 12.78,-37.97 0,-13.84 -3.68,-24.44 -11.13,-31.88 -7.37,-7.45 -17.59,-11.13 -30.6,-11.13 -12.93,0 -23.16,3.91 -30.83,11.73 -7.59,7.74 -11.95,20.68 -13.15,38.8l-61.81 -6.17c3.68,-34.13 15.19,-58.64 34.59,-73.53 19.4,-14.81 43.61,-22.26 72.7,-22.26 31.88,0 56.92,8.65 75.19,25.87 18.2,17.21 27.3,38.64 27.3,64.28 0,14.59 -2.64,28.42 -7.82,41.66 -5.19,13.16 -13.46,26.92 -24.82,41.35 -7.44,9.62 -21.05,23.38 -40.6,41.35 -19.62,17.98 -32.03,29.85 -37.22,35.79 -5.26,5.87 -9.47,11.66 -12.7,17.22l123.16 0zm166.98 -267.52c31.27,0 55.71,11.21 73.38,33.61 20.98,26.47 31.5,70.45 31.5,131.81 0,61.28 -10.6,105.34 -31.73,132.1 -17.51,22.11 -41.88,33.16 -73.15,33.16 -31.43,0 -56.77,-12.1 -76.02,-36.31 -19.25,-24.22 -28.87,-67.45 -28.87,-129.55 0,-60.98 10.6,-104.89 31.73,-131.66 17.52,-22.1 41.88,-33.16 73.16,-33.16zm0 51.43c-7.37,0 -13.99,2.41 -19.7,7.22 -5.79,4.74 -10.3,13.31 -13.46,25.71 -4.21,16.02 -6.32,43.09 -6.32,81.06 0,38.04 1.88,64.13 5.64,78.34 3.76,14.21 8.5,23.69 14.21,28.42 5.71,4.74 12.26,7.07 19.63,7.07 7.36,0 13.98,-2.4 19.77,-7.22 5.71,-4.73 10.23,-13.31 13.38,-25.71 4.21,-15.87 6.32,-42.86 6.32,-80.9 0,-37.97 -1.88,-64.06 -5.64,-78.27 -3.76,-14.21 -8.5,-23.76 -14.21,-28.5 -5.72,-4.81 -12.26,-7.22 -19.62,-7.22zm375.85 216.09l0 57.3 -217 0c2.34,-21.81 9.4,-42.41 21.13,-61.88 11.73,-19.48 34.96,-45.34 69.55,-77.6 27.9,-26.01 44.96,-43.68 51.28,-52.93 8.5,-12.78 12.78,-25.41 12.78,-37.97 0,-13.84 -3.68,-24.44 -11.13,-31.88 -7.36,-7.45 -17.59,-11.13 -30.6,-11.13 -12.93,0 -23.16,3.91 -30.83,11.73 -7.59,7.74 -11.95,20.68 -13.15,38.8l-61.81 -6.17c3.69,-34.13 15.19,-58.64 34.59,-73.53 19.4,-14.81 43.61,-22.26 72.71,-22.26 31.88,0 56.91,8.65 75.18,25.87 18.2,17.21 27.3,38.64 27.3,64.28 0,14.59 -2.63,28.42 -7.82,41.66 -5.19,13.16 -13.46,26.92 -24.81,41.35 -7.45,9.62 -21.06,23.38 -40.61,41.35 -19.62,17.98 -32.03,29.85 -37.21,35.79 -5.27,5.87 -9.48,11.66 -12.71,17.22l123.16 0zm60.29 -28.34l60 -7.3c1.88,15.34 6.99,27.07 15.33,35.19 8.35,8.12 18.42,12.18 30.23,12.18 12.71,0 23.38,-4.89 32.1,-14.58 8.65,-9.7 13.01,-22.79 13.01,-39.33 0,-15.56 -4.13,-27.97 -12.48,-37.07 -8.34,-9.09 -18.49,-13.68 -30.53,-13.68 -7.89,0 -17.29,1.58 -28.27,4.66l6.85 -50.22c16.69,0.45 29.39,-3.24 38.19,-10.98 8.8,-7.67 13.16,-17.97 13.16,-30.83 0,-10.9 -3.23,-19.55 -9.7,-26.09 -6.47,-6.47 -15.04,-9.7 -25.79,-9.7 -10.6,0 -19.62,3.68 -27.07,11.05 -7.52,7.37 -12.03,18.12 -13.68,32.26l-56.84 -9.7c3.98,-19.7 9.92,-35.41 17.97,-47.22 7.97,-11.73 19.17,-20.97 33.45,-27.74 14.29,-6.69 30.38,-10.08 48.12,-10.08 30.38,0 54.74,9.7 73.09,29.18 15.11,15.94 22.71,33.98 22.71,54.06 0,28.42 -15.49,51.2 -46.55,68.12 18.5,3.98 33.24,12.85 44.36,26.69 11.06,13.83 16.62,30.53 16.62,50.07 0,28.35 -10.38,52.56 -31.05,72.56 -20.68,20 -46.39,30 -77.22,30 -29.17,0 -53.38,-8.42 -72.56,-25.34 -19.24,-16.84 -30.37,-38.87 -33.45,-66.16z"/>
 </g>
</svg>
